<svg width="840" height="619" viewBox="0 0 840 619" fill="none" xmlns="http://www.w3.org/2000/svg">
<g clip-path="url(#clip0)">
<path d="M406.11 547.281C225.44 533.926 9.98278 397.949 20.952 257.939C31.9213 117.928 240.594 -12.4101 421.264 0.944794C601.934 14.2997 705.934 275.956 694.964 415.967C683.995 555.977 586.78 560.636 406.11 547.281Z" fill="#CCCCCC"/>
<path d="M421.262 569.77C629.552 569.77 798.405 559.721 798.405 547.326C798.405 534.931 629.552 524.883 421.262 524.883C212.972 524.883 44.1194 534.931 44.1194 547.326C44.1194 559.721 212.972 569.77 421.262 569.77Z" fill="#3F3D56"/>
<path opacity="0.1" d="M421.262 561.806C598.679 561.806 742.504 555.161 742.504 546.964C742.504 538.768 598.679 532.123 421.262 532.123C243.845 532.123 100.02 538.768 100.02 546.964C100.02 555.161 243.845 561.806 421.262 561.806Z" fill="black"/>
<path d="M158.157 619C245.504 619 316.313 613.003 316.313 605.606C316.313 598.209 245.504 592.213 158.157 592.213C70.8092 592.213 0 598.209 0 605.606C0 613.003 70.8092 619 158.157 619Z" fill="#3F3D56"/>
<path opacity="0.1" d="M158.157 614.247C232.557 614.247 292.871 610.282 292.871 605.39C292.871 600.499 232.557 596.533 158.157 596.533C83.7559 596.533 23.4422 600.499 23.4422 605.39C23.4422 610.282 83.7559 614.247 158.157 614.247Z" fill="black"/>
<path d="M706.728 117.284H146.231V544.43H706.728V117.284Z" fill="#3F3D56"/>
<path d="M420.103 175.658H281.829C281.608 175.658 281.39 175.616 281.186 175.535C280.982 175.453 280.796 175.333 280.64 175.182C280.484 175.03 280.36 174.85 280.275 174.652C280.191 174.454 280.147 174.242 280.147 174.028C280.147 173.814 280.191 173.601 280.275 173.403C280.36 173.205 280.484 173.025 280.64 172.874C280.796 172.723 280.982 172.603 281.186 172.521C281.39 172.439 281.608 172.397 281.829 172.398H420.103C420.547 172.399 420.973 172.571 421.287 172.876C421.601 173.182 421.777 173.596 421.777 174.028C421.777 174.46 421.601 174.874 421.287 175.179C420.973 175.485 420.547 175.657 420.103 175.658V175.658Z" fill="#CCCCCC"/>
<path d="M571.466 193.588H353.986C353.541 193.588 353.115 193.416 352.8 193.11C352.485 192.805 352.308 192.39 352.308 191.958C352.308 191.525 352.485 191.111 352.8 190.805C353.115 190.499 353.541 190.328 353.986 190.328H571.466C571.686 190.328 571.905 190.37 572.108 190.452C572.312 190.534 572.497 190.654 572.653 190.805C572.808 190.956 572.932 191.136 573.016 191.334C573.101 191.532 573.144 191.744 573.144 191.958C573.144 192.172 573.101 192.384 573.016 192.581C572.932 192.779 572.808 192.959 572.653 193.11C572.497 193.262 572.312 193.382 572.108 193.464C571.905 193.545 571.686 193.588 571.466 193.588V193.588Z" fill="#CCCCCC"/>
<path d="M420.774 211.517H282.5C282.055 211.517 281.628 211.346 281.314 211.04C280.999 210.734 280.822 210.32 280.822 209.887C280.822 209.455 280.999 209.041 281.314 208.735C281.628 208.429 282.055 208.257 282.5 208.257H420.774C421.219 208.257 421.646 208.429 421.961 208.735C422.275 209.041 422.452 209.455 422.452 209.887C422.452 210.32 422.275 210.734 421.961 211.04C421.646 211.346 421.219 211.517 420.774 211.517V211.517Z" fill="#CCCCCC"/>
<path d="M571.466 211.843H433.192C432.747 211.843 432.32 211.672 432.005 211.366C431.691 211.06 431.514 210.646 431.514 210.213C431.514 209.781 431.691 209.367 432.005 209.061C432.32 208.755 432.747 208.583 433.192 208.583H571.466C571.911 208.583 572.338 208.755 572.653 209.061C572.967 209.367 573.144 209.781 573.144 210.213C573.144 210.646 572.967 211.06 572.653 211.366C572.338 211.672 571.911 211.843 571.466 211.843V211.843Z" fill="#CCCCCC"/>
<path d="M421.11 229.447H282.836C282.391 229.447 281.964 229.276 281.649 228.97C281.334 228.664 281.158 228.25 281.158 227.817C281.158 227.385 281.334 226.97 281.649 226.665C281.964 226.359 282.391 226.187 282.836 226.187H421.11C421.555 226.187 421.982 226.359 422.296 226.665C422.611 226.97 422.788 227.385 422.788 227.817C422.788 228.25 422.611 228.664 422.296 228.97C421.982 229.276 421.555 229.447 421.11 229.447V229.447Z" fill="#CCCCCC"/>
<path d="M421.445 247.377H283.171C282.726 247.377 282.299 247.205 281.985 246.9C281.67 246.594 281.493 246.179 281.493 245.747C281.493 245.315 281.67 244.9 281.985 244.594C282.299 244.289 282.726 244.117 283.171 244.117H421.445C421.89 244.117 422.317 244.289 422.632 244.594C422.947 244.9 423.124 245.315 423.124 245.747C423.124 246.179 422.947 246.594 422.632 246.9C422.317 247.205 421.89 247.377 421.445 247.377V247.377Z" fill="#CCCCCC"/>
<path d="M484.206 175.984H444.603C444.158 175.984 443.731 175.812 443.416 175.506C443.102 175.201 442.925 174.786 442.925 174.354C442.925 173.922 443.102 173.507 443.416 173.201C443.731 172.896 444.158 172.724 444.603 172.724H484.206C484.651 172.724 485.078 172.896 485.392 173.201C485.707 173.507 485.884 173.922 485.884 174.354C485.884 174.786 485.707 175.201 485.392 175.506C485.078 175.812 484.651 175.984 484.206 175.984V175.984Z" fill="#CCCCCC"/>
<path d="M484.206 229.447H444.603C444.158 229.447 443.731 229.276 443.416 228.97C443.102 228.664 442.925 228.25 442.925 227.817C442.925 227.385 443.102 226.97 443.416 226.665C443.731 226.359 444.158 226.187 444.603 226.187H484.206C484.651 226.187 485.078 226.359 485.392 226.665C485.707 226.97 485.884 227.385 485.884 227.817C485.884 228.25 485.707 228.664 485.392 228.97C485.078 229.276 484.651 229.447 484.206 229.447V229.447Z" fill="#CCCCCC"/>
<path d="M484.206 247.051H444.603C444.382 247.051 444.164 247.01 443.96 246.928C443.756 246.846 443.57 246.726 443.414 246.575C443.258 246.423 443.134 246.244 443.049 246.046C442.965 245.848 442.921 245.635 442.921 245.421C442.921 245.207 442.965 244.994 443.049 244.796C443.134 244.598 443.258 244.419 443.414 244.267C443.57 244.116 443.756 243.996 443.96 243.914C444.164 243.832 444.382 243.791 444.603 243.791H484.206C484.426 243.791 484.645 243.832 484.849 243.914C485.053 243.996 485.238 244.116 485.395 244.267C485.551 244.419 485.675 244.598 485.759 244.796C485.844 244.994 485.887 245.207 485.887 245.421C485.887 245.635 485.844 245.848 485.759 246.046C485.675 246.244 485.551 246.423 485.395 246.575C485.238 246.726 485.053 246.846 484.849 246.928C484.645 247.01 484.426 247.051 484.206 247.051V247.051Z" fill="#CCCCCC"/>
<path d="M550.658 247.051H511.055C510.611 247.05 510.185 246.878 509.871 246.572C509.557 246.267 509.38 245.853 509.38 245.421C509.38 244.989 509.557 244.575 509.871 244.27C510.185 243.964 510.611 243.792 511.055 243.791H550.658C550.878 243.791 551.097 243.832 551.301 243.914C551.505 243.996 551.69 244.116 551.847 244.267C552.003 244.419 552.127 244.598 552.211 244.796C552.296 244.994 552.339 245.207 552.339 245.421C552.339 245.635 552.296 245.848 552.211 246.046C552.127 246.244 552.003 246.423 551.847 246.575C551.69 246.726 551.505 246.846 551.301 246.928C551.097 247.01 550.878 247.051 550.658 247.051V247.051Z" fill="#CCCCCC"/>
<path d="M321.096 193.588H281.493C281.048 193.588 280.621 193.416 280.307 193.11C279.992 192.805 279.815 192.39 279.815 191.958C279.815 191.525 279.992 191.111 280.307 190.805C280.621 190.499 281.048 190.328 281.493 190.328H321.096C321.541 190.328 321.968 190.499 322.283 190.805C322.597 191.111 322.774 191.525 322.774 191.958C322.774 192.39 322.597 192.805 322.283 193.11C321.968 193.416 321.541 193.588 321.096 193.588V193.588Z" fill="#CCCCCC"/>
<path d="M420.271 439.715H281.997C281.552 439.715 281.125 439.543 280.81 439.237C280.495 438.932 280.319 438.517 280.319 438.085C280.319 437.653 280.495 437.238 280.81 436.932C281.125 436.627 281.552 436.455 281.997 436.455H420.271C420.716 436.455 421.143 436.627 421.457 436.932C421.772 437.238 421.949 437.653 421.949 438.085C421.949 438.517 421.772 438.932 421.457 439.237C421.143 439.543 420.716 439.715 420.271 439.715Z" fill="#CCCCCC"/>
<path d="M419.599 475.574H281.325C280.88 475.574 280.454 475.403 280.139 475.097C279.824 474.791 279.647 474.377 279.647 473.944C279.647 473.512 279.824 473.098 280.139 472.792C280.454 472.486 280.88 472.314 281.325 472.314H419.599C420.045 472.314 420.471 472.486 420.786 472.792C421.101 473.098 421.278 473.512 421.278 473.944C421.278 474.377 421.101 474.791 420.786 475.097C420.471 475.403 420.045 475.574 419.599 475.574Z" fill="#CCCCCC"/>
<path d="M419.935 493.504H281.661C281.44 493.505 281.222 493.463 281.018 493.381C280.814 493.299 280.628 493.179 280.472 493.028C280.316 492.877 280.192 492.697 280.108 492.499C280.023 492.301 279.979 492.089 279.979 491.874C279.979 491.66 280.023 491.448 280.108 491.25C280.192 491.052 280.316 490.872 280.472 490.72C280.628 490.569 280.814 490.449 281.018 490.367C281.222 490.286 281.44 490.244 281.661 490.244H419.935C420.156 490.244 420.374 490.286 420.578 490.367C420.782 490.449 420.968 490.569 421.124 490.72C421.28 490.872 421.404 491.052 421.489 491.25C421.573 491.448 421.617 491.66 421.617 491.874C421.617 492.089 421.573 492.301 421.489 492.499C421.404 492.697 421.28 492.877 421.124 493.028C420.968 493.179 420.782 493.299 420.578 493.381C420.374 493.463 420.156 493.505 419.935 493.504V493.504Z" fill="#CCCCCC"/>
<path d="M479.004 475.9H439.401C438.956 475.9 438.529 475.729 438.214 475.423C437.9 475.117 437.723 474.703 437.723 474.27C437.723 473.838 437.9 473.424 438.214 473.118C438.529 472.812 438.956 472.64 439.401 472.64H479.004C479.449 472.64 479.876 472.812 480.19 473.118C480.505 473.424 480.682 473.838 480.682 474.27C480.682 474.703 480.505 475.117 480.19 475.423C479.876 475.729 479.449 475.9 479.004 475.9Z" fill="#CCCCCC"/>
<path d="M479.004 493.504H439.401C438.956 493.504 438.529 493.333 438.214 493.027C437.9 492.721 437.723 492.307 437.723 491.874C437.723 491.442 437.9 491.027 438.214 490.722C438.529 490.416 438.956 490.244 439.401 490.244H479.004C479.449 490.244 479.876 490.416 480.19 490.722C480.505 491.027 480.682 491.442 480.682 491.874C480.682 492.307 480.505 492.721 480.19 493.027C479.876 493.333 479.449 493.504 479.004 493.504V493.504Z" fill="#CCCCCC"/>
<path d="M545.456 475.9H505.853C505.408 475.9 504.981 475.729 504.666 475.423C504.352 475.117 504.175 474.703 504.175 474.27C504.175 473.838 504.352 473.424 504.666 473.118C504.981 472.812 505.408 472.64 505.853 472.64H545.456C545.901 472.64 546.328 472.812 546.642 473.118C546.957 473.424 547.134 473.838 547.134 474.27C547.134 474.703 546.957 475.117 546.642 475.423C546.328 475.729 545.901 475.9 545.456 475.9V475.9Z" fill="#CCCCCC"/>
<path d="M571.634 457.645H354.154C353.709 457.645 353.282 457.473 352.968 457.167C352.653 456.862 352.476 456.447 352.476 456.015C352.476 455.582 352.653 455.168 352.968 454.862C353.282 454.556 353.709 454.385 354.154 454.385H571.634C572.079 454.385 572.506 454.556 572.821 454.862C573.135 455.168 573.312 455.582 573.312 456.015C573.312 456.447 573.135 456.862 572.821 457.167C572.506 457.473 572.079 457.645 571.634 457.645V457.645Z" fill="#CCCCCC"/>
<path d="M321.264 457.645H281.661C281.216 457.645 280.789 457.473 280.474 457.167C280.16 456.862 279.983 456.447 279.983 456.015C279.983 455.582 280.16 455.168 280.474 454.862C280.789 454.556 281.216 454.385 281.661 454.385H321.264C321.709 454.385 322.136 454.556 322.45 454.862C322.765 455.168 322.942 455.582 322.942 456.015C322.942 456.447 322.765 456.862 322.45 457.167C322.136 457.473 321.709 457.645 321.264 457.645V457.645Z" fill="#CCCCCC"/>
<path d="M571.634 511.76H354.154C353.934 511.76 353.715 511.719 353.511 511.637C353.307 511.555 353.122 511.435 352.965 511.284C352.809 511.132 352.685 510.953 352.601 510.755C352.516 510.557 352.473 510.344 352.473 510.13C352.473 509.916 352.516 509.703 352.601 509.505C352.685 509.307 352.809 509.128 352.965 508.976C353.122 508.825 353.307 508.705 353.511 508.623C353.715 508.541 353.934 508.5 354.154 508.5H571.634C572.079 508.5 572.506 508.672 572.821 508.977C573.135 509.283 573.312 509.698 573.312 510.13C573.312 510.562 573.135 510.977 572.821 511.283C572.506 511.588 572.079 511.76 571.634 511.76V511.76Z" fill="#CCCCCC"/>
<path d="M321.264 511.76H281.661C281.44 511.76 281.222 511.719 281.018 511.637C280.814 511.555 280.628 511.435 280.472 511.284C280.316 511.132 280.192 510.953 280.108 510.755C280.023 510.557 279.979 510.344 279.979 510.13C279.979 509.916 280.023 509.703 280.108 509.505C280.192 509.307 280.316 509.128 280.472 508.976C280.628 508.825 280.814 508.705 281.018 508.623C281.222 508.541 281.44 508.5 281.661 508.5H321.264C321.485 508.5 321.703 508.541 321.907 508.623C322.111 508.705 322.297 508.825 322.453 508.976C322.609 509.128 322.733 509.307 322.817 509.505C322.902 509.703 322.945 509.916 322.945 510.13C322.945 510.344 322.902 510.557 322.817 510.755C322.733 510.953 322.609 511.132 322.453 511.284C322.297 511.435 322.111 511.555 321.907 511.637C321.703 511.719 321.485 511.76 321.264 511.76Z" fill="#CCCCCC"/>
<path d="M386.877 290.409L333.178 341.916L386.877 393.423L398.959 381.688L358.35 342.242L399.294 302.47L386.877 290.409Z" fill="#CF347C"/>
<path d="M466.082 290.409L519.781 341.916L466.082 393.423L454 381.688L494.61 342.242L453.665 302.47L466.082 290.409Z" fill="#CF347C"/>
<path d="M161.138 134.66C164.843 134.66 167.846 131.742 167.846 128.144C167.846 124.545 164.843 121.628 161.138 121.628C157.433 121.628 154.43 124.545 154.43 128.144C154.43 131.742 157.433 134.66 161.138 134.66Z" fill="#CF347C"/>
<path d="M179.026 134.66C182.731 134.66 185.734 131.742 185.734 128.144C185.734 124.545 182.731 121.628 179.026 121.628C175.321 121.628 172.318 124.545 172.318 128.144C172.318 131.742 175.321 134.66 179.026 134.66Z" fill="#CF347C"/>
<path d="M196.914 134.66C200.619 134.66 203.622 131.742 203.622 128.144C203.622 124.545 200.619 121.628 196.914 121.628C193.21 121.628 190.206 124.545 190.206 128.144C190.206 131.742 193.21 134.66 196.914 134.66Z" fill="#CF347C"/>
<path opacity="0.1" d="M706.728 139.004H146.231V141.175H706.728V139.004Z" fill="black"/>
<path d="M839.399 439.782C839.399 485.951 811.142 502.071 776.286 502.071C741.43 502.071 713.173 485.951 713.173 439.782C713.173 393.613 776.286 334.879 776.286 334.879C776.286 334.879 839.399 393.613 839.399 439.782Z" fill="#CCCCCC"/>
<path d="M773.987 495.009L774.634 456.37L801.534 408.568L774.735 450.308L775.026 432.934L793.564 398.351L775.102 428.337L775.625 397.09L795.477 369.556L775.707 392.176L776.033 334.88L773.981 410.73L774.15 407.601L753.966 377.591L773.826 413.608L771.946 448.506L771.89 447.579L748.621 415.998L771.819 450.851L771.584 455.215L771.542 455.281L771.561 455.64L766.79 544.179H773.164L773.929 498.447L797.071 463.679L773.987 495.009Z" fill="#3F3D56"/>
<path d="M91.395 543.773C89.4586 544.82 87.4159 545.67 85.2995 546.308C81.5141 547.313 77.4681 546.944 73.6445 547.802C72.079 548.153 70.3752 548.887 69.8774 550.371C69.5122 551.459 69.9095 552.635 70.2899 553.718C74.5149 565.75 77.0614 578.526 83.7994 589.425C86.631 594.002 90.1457 598.147 94.2287 601.724C95.7605 603.065 97.4963 604.376 99.547 604.587C100.492 604.684 101.447 604.537 102.315 604.161C103.183 603.785 103.933 603.193 104.49 602.446C105.048 601.698 105.392 600.82 105.488 599.902C105.585 598.984 105.431 598.057 105.041 597.215C104.436 595.911 103.313 594.901 102.589 593.656C101.804 592.071 101.343 590.352 101.233 588.595C100.567 583.449 99.9261 578.07 101.762 573.2C102.993 569.933 105.252 567.148 107.133 564.188C109.015 561.228 110.578 557.837 110.159 554.383C109.873 552.025 108.689 549.867 107.439 547.828C106.185 545.784 103.708 540.292 101.191 539.61C98.5768 538.902 93.6744 542.638 91.395 543.773Z" fill="#2F2E41"/>
<path d="M160.291 585.335C160.33 586.499 160.163 587.662 159.796 588.771C159.008 590.792 157.053 592.178 156.043 594.104C154.638 596.783 155.274 600.022 156.205 602.889C156.789 604.687 157.554 606.558 159.121 607.669C160.461 608.476 161.986 608.95 163.559 609.05C177.002 610.857 190.658 609.82 204.224 610.199C206.696 610.268 209.314 610.352 211.472 609.178C213.631 608.005 214.965 605.054 213.497 603.12C212.179 601.384 209.573 601.4 207.354 601.298C201.576 601.013 196.074 598.811 191.767 595.061C190.917 594.356 190.18 593.532 189.58 592.616C189.119 591.804 188.736 590.951 188.437 590.07C186.535 585.066 184.273 580.199 181.666 575.504C180.937 574.19 180.111 572.822 178.755 572.119C177.762 571.68 176.685 571.452 175.595 571.449C172.214 571.236 163.459 570.118 160.844 572.672C158.428 575.032 160.344 582.338 160.291 585.335Z" fill="#2F2E41"/>
<path d="M181.096 293.714C193.024 293.714 202.692 284.322 202.692 272.737C202.692 261.151 193.024 251.76 181.096 251.76C169.169 251.76 159.5 261.151 159.5 272.737C159.5 284.322 169.169 293.714 181.096 293.714Z" fill="#FBBEBE"/>
<path d="M161.594 290.058C160.31 293.399 158.131 296.536 154.961 298.333L184.83 304.251C183.746 300.017 183.604 295.607 184.411 291.315C184.707 290.276 184.768 289.187 184.59 288.123C184.028 286.018 181.589 285.005 179.406 284.521C173.954 283.314 169.134 282.667 164.068 280.328C162.519 282.903 162.736 287.089 161.594 290.058Z" fill="#FBBEBE"/>
<path d="M154.711 290.479C157.924 289.066 161.425 288.379 164.951 288.469C168.477 288.558 171.936 289.422 175.069 290.996C178.898 292.956 182.069 295.914 185.184 298.834C188.056 301.524 191.119 304.605 191.323 308.476C191.421 310.351 190.819 312.185 190.515 314.039C189.968 317.873 190.663 321.778 192.503 325.212C194.343 328.646 197.238 331.438 200.785 333.202C203.158 337.042 203.648 341.694 203.684 346.172C203.822 363.139 198.311 380.315 202.246 396.847C203.169 400.728 204.602 404.487 205.4 408.395C206.434 413.456 206.383 418.661 206.923 423.794C207.51 429.352 208.79 434.821 210.735 440.08C209.435 442.088 206.729 442.858 204.293 442.695C201.857 442.533 199.579 441.506 197.405 440.425C186.878 435.193 177.236 428.293 166.334 423.847C159.121 420.905 151.436 419.072 144.439 415.674C137.441 412.276 130.933 406.884 128.794 399.574C127.868 396.414 127.811 393.084 127.761 389.798C127.548 375.961 127.351 361.972 130.452 348.464C133.186 336.552 138.458 325.156 139.608 313.003C139.982 309.047 139.99 304.812 142.266 301.511C145.482 296.845 152.426 295.637 154.711 290.479Z" fill="#2F2E41"/>
<path d="M168.814 273.033C170.086 271.421 172.54 271.201 174.573 271.678C176.607 272.155 178.481 273.172 180.534 273.559C181.001 273.688 181.49 273.72 181.971 273.655C182.451 273.589 182.912 273.427 183.324 273.178C184.042 272.492 184.471 271.57 184.528 270.594C185.248 266.437 185.416 262.208 185.028 258.01C184.921 257.422 184.962 256.816 185.147 256.246C185.655 255.056 187.206 254.773 188.473 254.391C190.562 253.705 192.357 252.362 193.574 250.575C194.79 248.788 195.359 246.658 195.19 244.521C195.159 243.496 194.715 242.524 193.955 241.813C193.079 241.12 191.853 241.077 190.724 241.068C184.918 241.023 179.113 241.024 173.307 241.072C171.159 241.09 168.902 241.142 167.04 242.182C165.662 242.951 164.638 244.19 163.402 245.159C160.177 247.686 155.816 248.201 151.893 249.496C149.978 250.026 148.239 251.033 146.849 252.418C145.544 253.865 144.917 256.018 145.736 257.77C146.157 258.5 146.627 259.202 147.143 259.872C149.457 263.466 147.916 268.128 148.262 272.353C148.693 277.63 156.733 286.19 162.184 287.438C170.985 289.454 165.9 276.497 168.814 273.033Z" fill="#2F2E41"/>
<path d="M156.622 504.382C157.177 508.235 157.889 512.101 157.699 515.987C157.433 521.412 155.419 526.639 155.047 532.058C154.768 536.106 155.412 540.198 154.833 544.215C154.462 546.788 153.599 549.267 153.064 551.812C152.217 555.96 152.241 560.231 153.134 564.369C154.027 568.507 155.771 572.428 158.262 575.896C158.627 576.489 159.147 576.979 159.77 577.316C160.366 577.53 161.005 577.612 161.639 577.556C167.925 577.432 174.193 576.878 180.399 575.9C180.854 575.882 181.284 575.697 181.604 575.383C181.744 575.175 181.833 574.939 181.866 574.693C183.016 568.947 180.392 563.186 179.725 557.369C179.012 551.158 180.547 544.933 182.07 538.861C182.76 535.865 183.623 532.91 184.654 530.008C185.39 528.055 186.279 526.156 186.918 524.171C187.821 521.052 188.372 517.847 188.559 514.613C189.002 509.508 189.237 504.393 189.263 499.265C189.413 494.406 188.997 489.546 188.022 484.778C186.622 478.742 183.756 473.136 180.914 467.598C179.395 467.952 177.969 468.61 176.727 469.531C173.066 471.835 169.243 473.886 165.286 475.671C162.628 476.87 157.444 477.722 155.757 480.222C154.093 482.686 155.166 487.715 155.293 490.434C155.512 495.1 155.954 499.749 156.622 504.382Z" fill="#2F2E41"/>
<path opacity="0.1" d="M156.622 504.382C157.177 508.235 157.889 512.101 157.699 515.987C157.433 521.412 155.419 526.639 155.047 532.058C154.768 536.106 155.412 540.198 154.833 544.215C154.462 546.788 153.599 549.267 153.064 551.812C152.217 555.96 152.241 560.231 153.134 564.369C154.027 568.507 155.771 572.428 158.262 575.896C158.627 576.489 159.147 576.979 159.77 577.316C160.366 577.53 161.005 577.612 161.639 577.556C167.925 577.432 174.193 576.878 180.399 575.9C180.854 575.882 181.284 575.697 181.604 575.383C181.744 575.175 181.833 574.939 181.866 574.693C183.016 568.947 180.392 563.186 179.725 557.369C179.012 551.158 180.547 544.933 182.07 538.861C182.76 535.865 183.623 532.91 184.654 530.008C185.39 528.055 186.279 526.156 186.918 524.171C187.821 521.052 188.372 517.847 188.559 514.613C189.002 509.508 189.237 504.393 189.263 499.265C189.413 494.406 188.997 489.546 188.022 484.778C186.622 478.742 183.756 473.136 180.914 467.598C179.395 467.952 177.969 468.61 176.727 469.531C173.066 471.835 169.243 473.886 165.286 475.671C162.628 476.87 157.444 477.722 155.757 480.222C154.093 482.686 155.166 487.715 155.293 490.434C155.512 495.1 155.954 499.749 156.622 504.382Z" fill="black"/>
<path d="M127.424 422.091C124.557 429.591 128.772 437.696 132.435 444.862C141.458 462.517 147.724 481.356 153.956 500.114C154.423 501.519 154.889 503.052 154.369 504.439C153.919 505.425 153.19 506.265 152.266 506.862C147.968 510.033 142.497 511.162 137.378 512.82C132.431 514.424 127.692 516.582 123.259 519.249C119.55 521.482 116.075 524.059 112.607 526.632L101.567 534.822C100.852 535.291 100.227 535.878 99.7213 536.557C98.6565 538.18 99.0927 540.298 99.6228 542.152C101.027 547.061 102.834 551.853 105.028 556.481C105.389 557.496 106.076 558.37 106.988 558.976C108.712 559.876 110.819 558.683 112.135 557.277C113.451 555.871 114.589 554.121 116.444 553.518C118.297 552.915 120.336 553.645 122.271 553.381C125.4 552.954 127.478 550.154 129.734 548.004C138.95 539.222 154.337 539.859 164.476 532.094C165.941 530.82 167.493 529.642 169.12 528.57C170.834 527.585 172.778 527.045 174.556 526.176C179.965 523.53 183.365 518.061 185.186 512.451C187.008 506.841 187.527 500.92 188.836 495.177C189.513 492.208 190.404 489.271 190.705 486.244C190.898 483.429 190.835 480.602 190.516 477.798L186.858 433.841C186.56 430.263 186.262 426.68 185.683 423.133C174.819 423.51 163.962 423.935 153.091 424.06C144.441 424.159 135.632 424.747 127.424 422.091Z" fill="#2F2E41"/>
<path d="M123.43 432.374C124.904 434.676 128.491 434.629 130.962 433.367C133.432 432.104 135.351 429.984 137.827 428.732C141.154 427.051 145.091 427.114 148.84 427.217C154.776 427.38 160.784 427.553 166.495 429.133C172.402 430.767 178.152 433.914 184.259 433.286C185.322 433.177 186.484 432.881 187.063 432.008C187.402 431.375 187.561 430.667 187.524 429.955L187.724 424.772C187.847 423.875 187.699 422.964 187.299 422.147C186.787 421.467 186.084 420.945 185.275 420.641C176.582 416.554 166.668 415.793 157.015 415.472C152.109 415.308 147.2 415.241 142.289 415.27C138.122 415.295 133.119 414.709 129.068 415.791C123.63 417.242 120.672 428.065 123.43 432.374Z" fill="#2F2E41"/>
<path d="M178.017 296.632C166.626 296.534 156.304 289.231 144.915 289.053C143.539 288.96 142.16 289.192 140.896 289.727C139.308 290.503 138.265 292.005 137.059 293.273C133.692 296.815 128.815 298.706 125.355 302.164C122.111 305.406 120.307 310.236 121.588 314.582C122.869 318.929 127.702 322.263 132.231 321.218C134.055 315.482 137.82 310.512 142.916 307.115C145.568 305.463 148.363 304.038 151.268 302.857C156.387 300.604 162.111 298.308 167.456 299.997C169.426 300.72 171.285 301.704 172.978 302.922L181.888 308.735C180.849 304.758 179.916 300.297 178.017 296.632Z" fill="#CF347C"/>
<path d="M130.919 317.372C129.406 319.205 131.585 321.861 131.251 324.187C131.03 325.733 129.72 326.913 129.175 328.381C128.61 329.902 128.91 331.587 128.695 333.19C128.48 334.355 128.162 335.501 127.745 336.614C126.785 339.938 126.116 343.335 125.743 346.768L123.749 361.23C123.403 363.406 123.192 365.601 123.118 367.802C123.219 369.447 123.106 371.098 122.781 372.716C122.34 374.296 121.362 375.679 120.705 377.186C120.047 378.694 119.742 380.518 120.631 381.91C117.656 384.317 116.771 389.044 118.851 392.216C119.247 392.71 119.557 393.264 119.768 393.856C119.883 394.683 119.743 395.525 119.364 396.274L117.349 401.491C116.833 402.827 116.669 404.86 118.104 405.165C116.916 406.364 115.99 407.784 115.382 409.34C115.088 410.121 115 410.962 115.126 411.785C115.253 412.608 115.59 413.387 116.107 414.05C116.608 414.477 117.035 414.98 117.37 415.539C117.567 416.318 117.516 417.136 117.224 417.887C116.923 419.026 116.865 420.213 117.053 421.376C117.242 422.538 117.674 423.65 118.322 424.644C118.994 425.624 119.945 426.394 121.059 426.858C122.173 427.322 123.403 427.46 124.597 427.256C128.629 426.373 132.253 424.978 136.319 425.703C145.074 427.263 153.857 428.83 162.336 431.46C172.014 434.461 181.384 438.862 191.498 439.786C192.164 439.918 192.856 439.814 193.449 439.491C193.964 439.017 194.284 438.377 194.35 437.69C195.392 432.945 196.434 428.199 197.476 423.454C198.736 418.193 199.695 412.869 200.35 407.506C200.706 404.045 200.807 400.564 200.908 397.086L201.714 369.408C202.091 365.329 201.531 361.219 200.074 357.376L195.44 343.006C192.796 334.806 186.729 327.534 184.569 319.201C183.202 313.926 182.192 308.266 178.526 304.156C173.299 298.295 164.256 297.383 156.341 298.391C152.766 298.846 149.16 299.632 146.067 301.433C142.49 303.516 139.856 306.797 137.307 310.002C135.206 312.644 133.068 314.768 130.919 317.372Z" fill="#CF347C"/>
<path d="M149.399 398.783C150.051 401.515 151.421 404.033 152.259 406.716C153.664 411.211 153.544 416.052 154.946 420.548C155.535 422.435 156.387 424.247 156.809 426.175C157.794 430.671 156.356 435.323 154.571 439.58C152.785 443.837 150.61 448.035 150.031 452.597C149.622 455.81 150.209 459.438 152.759 461.524C155.406 463.689 159.253 463.542 162.701 463.254C163.939 463.22 165.16 462.973 166.309 462.524C168.946 461.313 170.056 458.282 170.673 455.513C172.738 446.232 172.148 436.612 171.548 427.135L169.978 402.35C169.676 397.579 169.352 392.708 167.838 388.127C167.288 386.46 166.328 383.092 164.761 382.028C163.209 380.974 158.776 380.927 156.854 380.84C147.837 380.428 147.938 392.653 149.399 398.783Z" fill="#FBBEBE"/>
<path d="M159.39 307.273C157.548 306.336 155.228 306.74 153.448 307.783C151.73 308.926 150.224 310.345 148.997 311.98C145.018 316.699 140.805 322.112 141.395 328.184C141.617 330.461 142.514 332.616 143.123 334.825C145.791 344.512 142.84 354.756 143.179 364.778C143.375 370.569 144.672 376.265 145.964 381.921C146.227 383.076 146.65 384.412 147.799 384.801C148.663 385.093 149.596 384.717 150.451 384.402C153.635 383.259 157.056 382.877 160.424 383.29C163.793 383.702 167.009 384.896 169.802 386.771C171.937 385.664 171.137 382.164 170.659 379.86C169.236 373.013 171.167 365.949 173.512 359.346C175.857 352.742 178.663 346.147 179.051 339.172C179.491 331.269 176.794 323.556 174.132 316.075C173.551 314.443 172.916 312.731 171.569 311.602C170.416 310.77 169.094 310.183 167.691 309.882C164.864 309.07 162.002 308.601 159.39 307.273Z" fill="#2F2E41"/>
</g>
<defs>
<clipPath id="clip0">
<rect width="840" height="619" fill="white"/>
</clipPath>
</defs>
</svg>
